<?xml version="1.0" encoding="utf-8"?>
<!-- Generator: Adobe Illustrator 18.0.0, SVG Export Plug-In . SVG Version: 6.00 Build 0)  -->
<!DOCTYPE svg PUBLIC "-//W3C//DTD SVG 1.1//EN" "http://www.w3.org/Graphics/SVG/1.1/DTD/svg11.dtd">
<svg version="1.1" id="Layer_1" xmlns="http://www.w3.org/2000/svg" xmlns:xlink="http://www.w3.org/1999/xlink" x="0px" y="0px"
	 viewBox="0 0 777.6 625.3" enable-background="new 0 0 777.6 625.3" xml:space="preserve">
<g>
	<path class="balloon" d="M710.1,325.3c-10.9,1.6-21.8,3.7-32.7,5.1c-4.5,0.5-5.6,2.3-4.2,6.1c2.4,6.8,5.1,13.5,7.6,20.4c2.4,6.7,4.9,13.3,6.6,20.2
		c1.3,5.1-1.3,7.1-6.4,5.7c-7-2-13.8-4.4-20.8-6.4c-17.4-5-34-12.8-52.5-13.3c-3-0.1-5.2,0.3-7,2.7c-6.7,8.6-13.6,17-20.1,25.7
		c-2.5,3.3-4.8,3.7-7.7,0.9c-3.8-3.6-7.5-7.2-11.2-10.9c-8.6-8.8-17.1-17.7-25.8-26.5c-4-4-9-5.1-13.8-1.8
		c-14.2,9.9-28.4,19.9-42.3,30.2c-2.6,1.9-4.5,2.6-7.1,1.2c-2.4-1.3-4.8-2.4-7-4c-9.5-6.9-18.8-13.9-28.2-20.8
		c-2.1-1.5-4.3-2.7-7.7-4.8c0,14.3,0,27,0,39.8c0.1,0,0.5,0.1,0.7,0c3.5-2.6,7.1-5.3,10.6-8c8-6.1,8.6-6,13.4,3
		c3.1,5.9,6,11.8,9.1,17.6c15.5,28.3,31.2,56.6,46.7,84.9c4.9,8.9,9,10.1,18.7,5.5c6.8-3.2,6.8-3.2,9.7,3.7c0.4,1,0.8,2.1,1.2,3.1
		c6.9,16.9,13.3,34,20.7,50.8c7.1,16,15.1,31.6,22.6,47.4c0.8,1.8,1.2,3.7,1.8,5.6c-0.4,0.2-0.8,0.3-1.2,0.5
		c-1.9-1.6-3.8-3.2-5.6-4.9c-16.2-15.5-32.4-31.1-48.7-46.4c-10.8-10.2-22.2-19.7-32.7-30.2c-15.3-15.2-30.1-31.1-45.2-46.6
		c-5.1-5.2-10.3-10.2-15.4-15.4c-2.2-2.3-4.2-2.3-6.5-0.2c-3.1,2.9-6.3,5.7-9.4,8.7c-1.9,1.8-3.4,1.8-5.1-0.2
		c-4.2-4.9-8.7-9.6-12.9-14.5c-32.6-37.5-65.3-75.1-97.9-112.6c-1.4-1.6-2.3-3.7-3.7-6c-2.8,3.1-4.3,4.4-5.3,5.9
		c-7.5,10.9-15.1,21.8-22.4,32.8c-3.4,5-5.5,5.3-9.4,0.4c-1.3-1.6-2.3-3.4-3.4-5.1c-7-10.7-13.9-21.4-21-32c-4.4-6.7-5.5-7.2-11.3-2
		c-17.6,16-34.7,32.6-52.1,48.9c-1.5,1.4-3.2,2.6-4.9,3.9c-1.7-24.3-3.3-47.8-5-71.9c-27.9,3.2-52.2,14.9-78.3,24.8
		c0.5-5.4,0.3-9.8,1.4-13.9c2.5-9.7,5.6-19.3,8.6-28.9c2.7-8.8,2-10.3-6.5-12.3c-0.9-0.2-1.8-0.5-2.8-0.6
		c-11.8-0.7-23.6-1.4-35.4-2.1c-4.2-0.3-8.3-0.6-12.5-0.9c-0.1-0.5-0.3-0.9-0.4-1.4c3.1-3.5,6.1-7.1,9.3-10.5
		C61.1,263.2,73,251,84.6,238.5c4.9-5.3,4.7-6.7-1.3-10.7c-9.4-6.4-19.1-12.2-28.6-18.5c-2.3-1.5-4.1-3.6-6.1-5.5
		c0.2-0.5,0.5-1.1,0.7-1.6c15.5-0.6,30.2-3.5,44.4-12.5c-3.2-2.9-5.5-5.6-8.4-7.3c-4.7-2.9-9.8-5-14.7-7.6
		c-5.9-3.2-12.2-6.1-17.5-10.1c-9.6-7.2-18.7-15.1-27.9-22.7c-1.5-1.2-2.8-2.7-4.9-4.5c3.7-1.6,6.5-3,9.5-4
		c20.4-7.6,40.8-15.2,61.2-22.6c3.2-1.2,4.3-2.8,4.2-6.2c-0.6-16.2-1-32.5-1.5-48.8c-0.1-3.2,0-6.3,0-9.5c0.5-0.2,0.9-0.4,1.4-0.6
		c15.5,12.8,30,26.9,48.3,37.1c15.1-16.2,30.3-32.3,45.2-48.6c4.5-4.9,6.7-5.4,11.8-1.2c12.6,10.1,25.2,20,37.6,30.3
		c3.4,2.8,6,2.5,9-0.1c3.6-3.1,7.3-6,10.7-9.3c9.4-9.3,18.7-18.8,28-28.3c1.2-1.2,1.8-3,2.6-4.5c2.7,2.1,4,3,5.2,3.9
		c11.3,8.1,22.4,16.3,33.9,24.1c7,4.8,10.3,4.1,15.4-2.8c3.8-5.2,7.1-10.8,10.9-16.1c3.8-5.4,6.4-4.9,9.3,1.1c3,6.4,6,12.9,9.6,18.9
		c3.5,5.9,4.8,6.1,10.5,2.5c17.7-10.9,35.4-22,53-33c2-1.2,4.1-2.2,6.4-3.4c0.6,1.2,1.2,2,1.3,2.8c1.7,9.5,3.2,19,4.9,28.4
		c0.6,3.4,1.4,6.8,2.3,10.1c0.8,3.2,2.7,5,6.3,3.7c4.7-1.7,9.6-3,14.2-5c19.6-8.6,39.1-17.4,58.7-26.1c1-0.4,2.1-0.8,3.1-1.1
		c3.3-0.9,5.4-0.5,6.6,3.5c3,10.1,6.6,20.1,10.2,30c1.7,4.7,4.2,5.9,8.9,4.2c3.1-1.1,6-2.8,8.8-4.5c17.9-11,35.7-22.1,53.6-33
		c1.8-1.1,4.4-1.1,6.6-1.6c0.5,2.3,1.3,4.7,1.4,7c0.2,9.6-0.3,19.2,0.3,28.8c0.4,7.3,3.1,9,10.3,7.8c5.6-0.9,11.2-2,16.8-3.1
		c31.3-5.9,62.6-11.9,93.9-17.8c1.7-0.3,3.4,0,6.6,0c-3.8,4.5-6.4,8-9.5,11.1c-18.3,17.6-36.9,35-55.2,52.6
		c-5.3,5.1-10.5,10.5-15.3,16.1c-3.4,3.9-2.7,6.1,2.2,7.5c5.3,1.6,10.7,2.6,16.1,4c9.3,2.4,18.6,4.7,27.8,7.5
		c2.2,0.7,4.4,3.2,5.1,5.4c0.3,1-2.6,3.4-4.4,4.8c-1.7,1.4-3.8,2.2-5.7,3.3c-11.5,6.9-23,13.8-34.4,20.8c-2.5,1.5-4.7,3.5-8.2,6.2
		c13.4,6.1,25.4,11.9,37.7,17c12.2,5.1,24.7,9.4,38.6,14.6c-23.2,16.1-45.3,31.5-68,47.2c15.1,18.6,29.4,36.2,44.4,54.6
		C721.4,324.1,715.7,324.5,710.1,325.3z M416.5,413.4c0-27.5,0-54.2,0-81.4c1.7,1,3,1.7,4.3,2.4c12.5,7.7,24.9,15.5,37.5,23.1
		c2.7,1.6,5.8,2.5,8.5,4c1.7,0.9,3.8,2.1,4.5,3.6c1.9,4,4.1,3.7,7.1,1.6c4.8-3.4,9.5-6.8,14.3-10.1c9.9-6.7,19.9-13.3,29.8-20
		c2.4-1.6,4.3-1.3,6.4,0.5c12.8,10.9,28,19,37.7,33.4c0.3,0.4,0.7,0.7,1,1c5.7,5.8,6.6,5.9,11.8-0.3c5.6-6.5,10.9-13.1,16.2-19.8
		c2.2-2.7,4.3-3.2,7.8-2.3c20.9,5.4,41.9,10.6,62.8,15.8c1.5,0.4,3.3,0,6.5,0c-2.1-2.6-3.2-4.4-4.8-5.7c-4.6-3.7-7.5-8.5-8.6-14.3
		c-1.7-8.2-3.4-16.3-5-23.9c16.1-1.4,31.9-2.8,48.2-4.3c-8.9-21.8-25.5-35.7-41.3-51.8c23.3-12.2,45-25.1,66-40.8
		c-4.3-2.1-7.8-3.9-11.3-5.4c-19.6-8.3-39.2-16.5-58.9-24.6c-5.7-2.4-6.2-4.2-1-7.9c10.9-7.6,22.1-14.7,33.1-22
		c3.2-2.1,6.3-4.5,10-7.2c-10.5-6.2-20.8-10.2-31.9-12.2c-2.2-0.4-4.3-0.9-6.5-1c-4.3-0.3-5.1-2.7-3.7-6.1c1-2.4,2.5-4.8,4.2-6.8
		c11.3-13,22.6-26,34.3-38.6c3.3-3.5,8.3-5.4,12.2-8.3c5.4-4.1,10.5-8.5,15.7-12.7c-0.2-0.5-0.4-1-0.5-1.6c-3.3,0.2-6.6,0.1-9.9,0.6
		c-24.1,4-48.2,8.2-72.3,12.2c-5.4,0.9-10.9,1.4-16.4,2c-3.5,0.4-5.2-0.9-5.3-4.7c-0.3-9.8-0.9-19.5-1.5-29.3
		c-0.1-1.8-0.7-3.6-1.2-5.7c-1.6,0.9-2.7,1.4-3.7,2.1c-10.2,6.3-20.5,12.4-30.6,19c-7.7,5-15,10.5-22.4,15.7
		c-2.4,1.7-4.8,3.7-7.5,4.8c-4.8,1.9-6.8,0.5-8.2-4.4c-2.8-10.2-5.6-20.4-8.6-30.5c-1.7-5.6-3.6-6.8-9.2-4.7
		c-13.3,5-26.3,10.5-39.5,15.9c-7.6,3.1-15.1,6.5-22.6,9.6c-2.3,1-4.7,1.9-7,2.8c-10.8,3.6-12,2.7-14-8.6c-1.6-9-3.5-17.9-5.7-26.8
		c-1.3-5.2-2.8-5.7-7.4-2.8c-7.1,4.6-14,9.7-21,14.6c-9.9,7-19.8,14.1-29.8,21.1c-4.7,3.2-7,2.9-10.2-1.9c-2.8-4.2-4.9-8.8-7.3-13.2
		c-1.7-3.2-3.4-6.3-5.7-10.5c-1.8,2.4-3.4,3.9-4.3,5.7c-1.9,4-3.5,8.1-5.2,12.2c-3.3,8.2-6,8.7-12.8,3.2c-10-8-20-15.9-30.6-23
		c-10.1-6.9-7.6-6.1-15.5,1.4c-12.1,11.4-23.7,23.2-35.3,35.1c-2.6,2.7-4.7,3.2-7.6,0.9c-11.1-8.6-22.2-17.2-33.3-25.9
		c-3.6-2.8-7.3-5.5-10.6-8.7c-3.9-3.6-7.2-3.1-10.5,0.5c-4.5,4.9-9.3,9.5-13.3,14.7c-6.7,8.8-12.9,17.9-19.3,26.9
		c-6.6,9.3-8.5,9.7-18,3.5c-10.8-7-21.5-14.1-32.3-21.2c-0.5,0.2-0.9,0.4-1.4,0.7c0.6,8.2,1.3,16.5,1.9,24.7
		c0.4,4.4,0.7,8.8,1.3,13.2c0.4,2.9-0.5,4.9-3.5,5.7c-6,1.7-11.5,4.2-15.4,9.5c-0.9,1.2-2.9,1.8-4.5,2.4
		c-9.6,3.5-19.3,6.9-28.9,10.4c-2.7,1-5.3,2-8.7,3.3c2,1.5,3.3,2.7,4.8,3.7c17.1,11.7,34.2,23.3,51.2,34.9c2.7,1.9,5.5,3.8,8,6
		c4.6,4,3.7,8.9-2,10.7c-8.2,2.7-16.6,5-24.8,7.7c-2.5,0.8-4.7,2.2-7.6,3.6c6.3,9.5,14.4,15.6,24.3,19.6c1.7,0.7,4.2,2.2,4.2,3.3
		c-0.1,2-1.4,4.4-2.8,5.9c-11.7,12.6-23.6,25-35.4,37.5c-0.8,0.9-1.3,2.1-2.3,3.9c4,0.4,7.3,0.9,10.7,1c9.6,0.4,19.3,0.6,28.9,1
		c7.1,0.2,8.8,1.9,8,9c-0.7,5.4-2.4,10.7-3.5,16.1c-1.4,7.2-2.7,14.4-4.2,22.7c3.5-0.7,5.5-0.8,7.3-1.5
		c19.6-6.9,39.2-13.8,58.8-20.9c7.3-2.6,7.9-2.3,8.2,5.6c0.5,13.4,1,26.8,1.6,40.2c0.2,3.4,1.1,6.7,1.9,10.9c2.7-2,4.6-3.2,6.4-4.7
		c13-11.1,25.8-22.3,38.8-33.3c6.5-5.6,7.1-5.5,12.8,1c8.4,9.4,16.8,18.9,25.3,28.2c1.1,1.3,2.5,2.3,4.4,3.9
		c9-11,19.1-20.6,21.3-35.3c0.2-1.1,0.3-2.2,0.5-3.3c1-4.4,2.7-5.3,6-2.1c6.8,6.9,13.3,14.3,19.6,21.7c3.2,3.7,5.6,8,8.7,11.8
		c19.4,23.5,38.8,46.9,58.4,70.3c10.1,12.1,20.7,23.8,30.9,35.9c2.4,2.9,4.6,2.6,6.6,0.3c2.9-3.3,5.4-7,7.9-10.5
		c2.8-3.9,4.4-4.4,7.9-0.9c4.3,4.3,8.1,9.3,12.4,13.7c31,32.2,62.1,64.3,93.2,96.4c1.6,1.6,3.4,3,5.9,3.9c-1.6-3.7-3.2-7.4-4.9-11.1
		c-5.3-11.8-10.7-23.5-15.9-35.4c-1.7-3.8-3.8-4.9-8.1-3.8c-12.1,3.1-12,2.7-18.1-8c-18.9-33-37.9-65.9-56.9-98.9
		c-0.5-0.9-1.2-1.8-2-2.8C435.1,404.2,427,410.7,416.5,413.4z"/>
</g>
</svg>
